# xmcd
#
# Track frame offsets:
#  150
#  13215
#  30873
#  43678
#  58809
#  73703
#  82290
#  91325
#  105214
#  116384
#  130268
#  143691
#  156147
#  168856
#
# Disc length: 2424 seconds
#
# Revision: 0
# Processed by: cddbd v1.4PL0 Copyright (c) Steve Scherf et al.
# Submitted via: AltoMP3_Maker 3.0
#
DISCID=b009760e
DTITLE=Joel Elizalde - Como Duele saber
DYEAR=1900
DGENRE=
TTITLE0=Ando Amanecido
TTITLE1=Reproches al Viento
TTITLE2=Como Duele Saber
TTITLE3=Penas de Amor
TTITLE4=La Canelera
TTITLE5=El Frijolito
TTITLE6=La Pecosita
TTITLE7=Dame Felicidad
TTITLE8=Tu Retrato y Tu Recuerdo
TTITLE9=Naufrago de amor
TTITLE10=El Ultimo Golpe
TTITLE11=De Puntitas
TTITLE12=El Zopilote Mojado
TTITLE13=Que Me Pasa
EXTD=
EXTT0=
EXTT1=
EXTT2=
EXTT3=
EXTT4=
EXTT5=
EXTT6=
EXTT7=
EXTT8=
EXTT9=
EXTT10=
EXTT11=
EXTT12=
EXTT13=
PLAYORDER=
